<svg xmlns="http://www.w3.org/2000/svg" xmlns:xlink="http://www.w3.org/1999/xlink" width="259.893" height="69" viewBox="0 0 259.893 69">
  <defs>
    <clipPath id="clip-path">
      <rect id="Rectangle_653" data-name="Rectangle 653" width="259.893" height="69" fill="none"/>
    </clipPath>
  </defs>
  <g id="Group_1862" data-name="Group 1862" clip-path="url(#clip-path)">
    <path id="Path_1106" data-name="Path 1106" d="M224.428,65.432A1813.373,1813.373,0,0,1,35.383,65.42c-13.364-.672-23.264-2.91-24.828-5.622C.507,42.384-.6,25.664,9.855,9.842,11.72,7.02,22.508,4.752,36.628,4.22Q129.763.7,222.169,4.264c13.784.515,24.5,2.681,26.711,5.423,13.509,16.78,13.034,33.588-.418,50.42-2.042,2.555-11.434,4.642-24.034,5.324" transform="translate(-0.695 -0.695)" fill="#e94d4f"/>
    <path id="Path_1107" data-name="Path 1107" d="M224.428,65.432A1813.373,1813.373,0,0,1,35.383,65.42c-13.364-.672-23.264-2.91-24.828-5.622C.507,42.384-.6,25.664,9.855,9.842,11.72,7.02,22.508,4.752,36.628,4.22Q129.763.7,222.169,4.264c13.784.515,24.5,2.681,26.711,5.423,13.509,16.78,13.034,33.588-.418,50.42C246.42,62.662,237.028,64.749,224.428,65.432Z" transform="translate(-0.695 -0.695)" fill="none" stroke="#000" stroke-miterlimit="10" stroke-width="5"/>
  </g>
</svg>
